<mxfile host="app.diagrams.net" modified="2021-05-16T13:25:05.096Z" agent="5.0 (Windows NT 10.0; Win64; x64) AppleWebKit/537.36 (KHTML, like Gecko) Chrome/87.0.4280.141 Safari/537.36 OPR/73.0.3856.438" etag="qQ2Pl6MZjT4IqlZZXFA7" version="14.6.10" type="github">
  <diagram id="C5RBs43oDa-KdzZeNtuy" name="Page-1">
    <mxGraphModel dx="419" dy="719" grid="1" gridSize="10" guides="1" tooltips="1" connect="1" arrows="1" fold="1" page="1" pageScale="1" pageWidth="827" pageHeight="1169" math="0" shadow="0">
      <root>
        <mxCell id="WIyWlLk6GJQsqaUBKTNV-0" />
        <mxCell id="WIyWlLk6GJQsqaUBKTNV-1" parent="WIyWlLk6GJQsqaUBKTNV-0" />
        <mxCell id="zkfFHV4jXpPFQw0GAbJ--0" value="Zoom" style="swimlane;fontStyle=2;align=center;verticalAlign=top;childLayout=stackLayout;horizontal=1;startSize=26;horizontalStack=0;resizeParent=1;resizeLast=0;collapsible=1;marginBottom=0;rounded=0;shadow=0;strokeWidth=1;" parent="WIyWlLk6GJQsqaUBKTNV-1" vertex="1">
          <mxGeometry x="55" y="40" width="160" height="150" as="geometry">
            <mxRectangle x="230" y="140" width="160" height="26" as="alternateBounds" />
          </mxGeometry>
        </mxCell>
        <mxCell id="zkfFHV4jXpPFQw0GAbJ--1" value="+ tela : GameObject&#xa;- oldPosition : Vector3Â " style="text;align=left;verticalAlign=top;spacingLeft=4;spacingRight=4;overflow=hidden;rotatable=0;points=[[0,0.5],[1,0.5]];portConstraint=eastwest;" parent="zkfFHV4jXpPFQw0GAbJ--0" vertex="1">
          <mxGeometry y="26" width="160" height="34" as="geometry" />
        </mxCell>
        <mxCell id="zkfFHV4jXpPFQw0GAbJ--4" value="" style="line;html=1;strokeWidth=1;align=left;verticalAlign=middle;spacingTop=-1;spacingLeft=3;spacingRight=3;rotatable=0;labelPosition=right;points=[];portConstraint=eastwest;" parent="zkfFHV4jXpPFQw0GAbJ--0" vertex="1">
          <mxGeometry y="60" width="160" height="8" as="geometry" />
        </mxCell>
        <mxCell id="zkfFHV4jXpPFQw0GAbJ--5" value="- Start() : void&#xa;- Update() : void&#xa;+ ZoomIn() : void&#xa;+ ZoomOut() : void&#xa;+ NormalizeZoom() : void" style="text;align=left;verticalAlign=top;spacingLeft=4;spacingRight=4;overflow=hidden;rotatable=0;points=[[0,0.5],[1,0.5]];portConstraint=eastwest;" parent="zkfFHV4jXpPFQw0GAbJ--0" vertex="1">
          <mxGeometry y="68" width="160" height="82" as="geometry" />
        </mxCell>
        <mxCell id="7XHn4DZ-H4VYJd7vNkH7-1" value="Undo" style="swimlane;fontStyle=2;align=center;verticalAlign=top;childLayout=stackLayout;horizontal=1;startSize=26;horizontalStack=0;resizeParent=1;resizeLast=0;collapsible=1;marginBottom=0;rounded=0;shadow=0;strokeWidth=1;" parent="WIyWlLk6GJQsqaUBKTNV-1" vertex="1">
          <mxGeometry x="40" y="210" width="190" height="170" as="geometry">
            <mxRectangle x="230" y="140" width="160" height="26" as="alternateBounds" />
          </mxGeometry>
        </mxCell>
        <mxCell id="7XHn4DZ-H4VYJd7vNkH7-2" value="- last : bool&#xa;- pressed : bool&#xa;- hand_model : HandModel&#xa;- leap_hand : Hand&#xa;- textures : List&lt;Texture2D&gt;&#xa;+ telaDisegnabile : GameObject" style="text;align=left;verticalAlign=top;spacingLeft=4;spacingRight=4;overflow=hidden;rotatable=0;points=[[0,0.5],[1,0.5]];portConstraint=eastwest;" parent="7XHn4DZ-H4VYJd7vNkH7-1" vertex="1">
          <mxGeometry y="26" width="190" height="94" as="geometry" />
        </mxCell>
        <mxCell id="7XHn4DZ-H4VYJd7vNkH7-3" value="" style="line;html=1;strokeWidth=1;align=left;verticalAlign=middle;spacingTop=-1;spacingLeft=3;spacingRight=3;rotatable=0;labelPosition=right;points=[];portConstraint=eastwest;" parent="7XHn4DZ-H4VYJd7vNkH7-1" vertex="1">
          <mxGeometry y="120" width="190" height="8" as="geometry" />
        </mxCell>
        <mxCell id="7XHn4DZ-H4VYJd7vNkH7-4" value="- Start() : void&#xa;- Update() : void" style="text;align=left;verticalAlign=top;spacingLeft=4;spacingRight=4;overflow=hidden;rotatable=0;points=[[0,0.5],[1,0.5]];portConstraint=eastwest;" parent="7XHn4DZ-H4VYJd7vNkH7-1" vertex="1">
          <mxGeometry y="128" width="190" height="42" as="geometry" />
        </mxCell>
        <mxCell id="7XHn4DZ-H4VYJd7vNkH7-9" value="StartDrawing" style="swimlane;fontStyle=2;align=center;verticalAlign=top;childLayout=stackLayout;horizontal=1;startSize=26;horizontalStack=0;resizeParent=1;resizeLast=0;collapsible=1;marginBottom=0;rounded=0;shadow=0;strokeWidth=1;" parent="WIyWlLk6GJQsqaUBKTNV-1" vertex="1">
          <mxGeometry x="45" y="400" width="190" height="222" as="geometry">
            <mxRectangle x="230" y="140" width="160" height="26" as="alternateBounds" />
          </mxGeometry>
        </mxCell>
        <mxCell id="7XHn4DZ-H4VYJd7vNkH7-10" value="+ tela : GameObject&#xa;+ configMenu : GameObject&#xa;+ caricaFoglio : Button&#xa;+ creaNuovaTela : GameObject&#xa;+ hands : GameObject&#xa;+ telaDisegnabile : GameObject&#xa;+ actionController : GameObject&#xa;" style="text;align=left;verticalAlign=top;spacingLeft=4;spacingRight=4;overflow=hidden;rotatable=0;points=[[0,0.5],[1,0.5]];portConstraint=eastwest;" parent="7XHn4DZ-H4VYJd7vNkH7-9" vertex="1">
          <mxGeometry y="26" width="190" height="104" as="geometry" />
        </mxCell>
        <mxCell id="7XHn4DZ-H4VYJd7vNkH7-11" value="" style="line;html=1;strokeWidth=1;align=left;verticalAlign=middle;spacingTop=-1;spacingLeft=3;spacingRight=3;rotatable=0;labelPosition=right;points=[];portConstraint=eastwest;" parent="7XHn4DZ-H4VYJd7vNkH7-9" vertex="1">
          <mxGeometry y="130" width="190" height="10" as="geometry" />
        </mxCell>
        <mxCell id="7XHn4DZ-H4VYJd7vNkH7-12" value="- Start() : void&#xa;- Update() : void&#xa;+ HideCaricamento() : void&#xa;+ HideNuovaTela() : void&#xa;+ ShowHands() : void" style="text;align=left;verticalAlign=top;spacingLeft=4;spacingRight=4;overflow=hidden;rotatable=0;points=[[0,0.5],[1,0.5]];portConstraint=eastwest;" parent="7XHn4DZ-H4VYJd7vNkH7-9" vertex="1">
          <mxGeometry y="140" width="190" height="82" as="geometry" />
        </mxCell>
        <mxCell id="7XHn4DZ-H4VYJd7vNkH7-13" value="ShowMenu" style="swimlane;fontStyle=2;align=center;verticalAlign=top;childLayout=stackLayout;horizontal=1;startSize=26;horizontalStack=0;resizeParent=1;resizeLast=0;collapsible=1;marginBottom=0;rounded=0;shadow=0;strokeWidth=1;" parent="WIyWlLk6GJQsqaUBKTNV-1" vertex="1">
          <mxGeometry x="45" y="640" width="180" height="270" as="geometry">
            <mxRectangle x="230" y="140" width="160" height="26" as="alternateBounds" />
          </mxGeometry>
        </mxCell>
        <mxCell id="7XHn4DZ-H4VYJd7vNkH7-14" value="+ menu : GameObject&#xa;+ configMenu : GameObject&#xa;+ colorPicker : GameObject&#xa;+ instruments : GameObject&#xa;- showStart : bool&#xa;- showConfig : bool&#xa;+ nuovofoglio : Button&#xa;+ hands: GameObject&#xa;+ telaDisegnabile : GameObject&#xa;+ exitMenu : GameObject&#xa;+ info : GameObject" style="text;align=left;verticalAlign=top;spacingLeft=4;spacingRight=4;overflow=hidden;rotatable=0;points=[[0,0.5],[1,0.5]];portConstraint=eastwest;" parent="7XHn4DZ-H4VYJd7vNkH7-13" vertex="1">
          <mxGeometry y="26" width="180" height="164" as="geometry" />
        </mxCell>
        <mxCell id="7XHn4DZ-H4VYJd7vNkH7-15" value="" style="line;html=1;strokeWidth=1;align=left;verticalAlign=middle;spacingTop=-1;spacingLeft=3;spacingRight=3;rotatable=0;labelPosition=right;points=[];portConstraint=eastwest;" parent="7XHn4DZ-H4VYJd7vNkH7-13" vertex="1">
          <mxGeometry y="190" width="180" height="8" as="geometry" />
        </mxCell>
        <mxCell id="7XHn4DZ-H4VYJd7vNkH7-16" value="- Start() : void&#xa;- Update() : void&#xa;+ ChangeConfig() : void&#xa;+ CreateJson() : void" style="text;align=left;verticalAlign=top;spacingLeft=4;spacingRight=4;overflow=hidden;rotatable=0;points=[[0,0.5],[1,0.5]];portConstraint=eastwest;" parent="7XHn4DZ-H4VYJd7vNkH7-13" vertex="1">
          <mxGeometry y="198" width="180" height="72" as="geometry" />
        </mxCell>
        <mxCell id="AvE2K1NfEVFAq9hO1QU2-0" value="Rotate" style="swimlane;fontStyle=2;align=center;verticalAlign=top;childLayout=stackLayout;horizontal=1;startSize=26;horizontalStack=0;resizeParent=1;resizeLast=0;collapsible=1;marginBottom=0;rounded=0;shadow=0;strokeWidth=1;" vertex="1" parent="WIyWlLk6GJQsqaUBKTNV-1">
          <mxGeometry x="45" y="940" width="180" height="150" as="geometry">
            <mxRectangle x="230" y="140" width="160" height="26" as="alternateBounds" />
          </mxGeometry>
        </mxCell>
        <mxCell id="AvE2K1NfEVFAq9hO1QU2-1" value="+ tela : GameObject&#xa;- defaultRotation : Quaternion" style="text;align=left;verticalAlign=top;spacingLeft=4;spacingRight=4;overflow=hidden;rotatable=0;points=[[0,0.5],[1,0.5]];portConstraint=eastwest;" vertex="1" parent="AvE2K1NfEVFAq9hO1QU2-0">
          <mxGeometry y="26" width="180" height="34" as="geometry" />
        </mxCell>
        <mxCell id="AvE2K1NfEVFAq9hO1QU2-2" value="" style="line;html=1;strokeWidth=1;align=left;verticalAlign=middle;spacingTop=-1;spacingLeft=3;spacingRight=3;rotatable=0;labelPosition=right;points=[];portConstraint=eastwest;" vertex="1" parent="AvE2K1NfEVFAq9hO1QU2-0">
          <mxGeometry y="60" width="180" height="8" as="geometry" />
        </mxCell>
        <mxCell id="AvE2K1NfEVFAq9hO1QU2-3" value="- Start() : void&#xa;- Update() : void&#xa;+ RotateRight() : void&#xa;+ Rotare Left() : void&#xa;+ NormalizeRotation() : void" style="text;align=left;verticalAlign=top;spacingLeft=4;spacingRight=4;overflow=hidden;rotatable=0;points=[[0,0.5],[1,0.5]];portConstraint=eastwest;" vertex="1" parent="AvE2K1NfEVFAq9hO1QU2-0">
          <mxGeometry y="68" width="180" height="82" as="geometry" />
        </mxCell>
        <mxCell id="AvE2K1NfEVFAq9hO1QU2-8" value="Paths" style="swimlane;fontStyle=2;align=center;verticalAlign=top;childLayout=stackLayout;horizontal=1;startSize=26;horizontalStack=0;resizeParent=1;resizeLast=0;collapsible=1;marginBottom=0;rounded=0;shadow=0;strokeWidth=1;" vertex="1" parent="WIyWlLk6GJQsqaUBKTNV-1">
          <mxGeometry x="290" y="40" width="180" height="60" as="geometry">
            <mxRectangle x="230" y="140" width="160" height="26" as="alternateBounds" />
          </mxGeometry>
        </mxCell>
        <mxCell id="AvE2K1NfEVFAq9hO1QU2-9" value="+ path : string" style="text;align=left;verticalAlign=top;spacingLeft=4;spacingRight=4;overflow=hidden;rotatable=0;points=[[0,0.5],[1,0.5]];portConstraint=eastwest;" vertex="1" parent="AvE2K1NfEVFAq9hO1QU2-8">
          <mxGeometry y="26" width="180" height="24" as="geometry" />
        </mxCell>
        <mxCell id="AvE2K1NfEVFAq9hO1QU2-10" value="" style="line;html=1;strokeWidth=1;align=left;verticalAlign=middle;spacingTop=-1;spacingLeft=3;spacingRight=3;rotatable=0;labelPosition=right;points=[];portConstraint=eastwest;" vertex="1" parent="AvE2K1NfEVFAq9hO1QU2-8">
          <mxGeometry y="50" width="180" height="8" as="geometry" />
        </mxCell>
        <mxCell id="AvE2K1NfEVFAq9hO1QU2-12" value="OpenStrumenti" style="swimlane;fontStyle=2;align=center;verticalAlign=top;childLayout=stackLayout;horizontal=1;startSize=26;horizontalStack=0;resizeParent=1;resizeLast=0;collapsible=1;marginBottom=0;rounded=0;shadow=0;strokeWidth=1;" vertex="1" parent="WIyWlLk6GJQsqaUBKTNV-1">
          <mxGeometry x="290" y="120" width="180" height="150" as="geometry">
            <mxRectangle x="230" y="140" width="160" height="26" as="alternateBounds" />
          </mxGeometry>
        </mxCell>
        <mxCell id="AvE2K1NfEVFAq9hO1QU2-13" value="- button : InteractionButton&#xa;- prevPress : bool&#xa;- active : bool&#xa;+ instrument : GameObject&#xa;+ rightHand : GameObject" style="text;align=left;verticalAlign=top;spacingLeft=4;spacingRight=4;overflow=hidden;rotatable=0;points=[[0,0.5],[1,0.5]];portConstraint=eastwest;" vertex="1" parent="AvE2K1NfEVFAq9hO1QU2-12">
          <mxGeometry y="26" width="180" height="74" as="geometry" />
        </mxCell>
        <mxCell id="AvE2K1NfEVFAq9hO1QU2-14" value="" style="line;html=1;strokeWidth=1;align=left;verticalAlign=middle;spacingTop=-1;spacingLeft=3;spacingRight=3;rotatable=0;labelPosition=right;points=[];portConstraint=eastwest;" vertex="1" parent="AvE2K1NfEVFAq9hO1QU2-12">
          <mxGeometry y="100" width="180" height="8" as="geometry" />
        </mxCell>
        <mxCell id="AvE2K1NfEVFAq9hO1QU2-17" value="- Start() : void&#xa;- Update() : void&#xa;" style="text;align=left;verticalAlign=top;spacingLeft=4;spacingRight=4;overflow=hidden;rotatable=0;points=[[0,0.5],[1,0.5]];portConstraint=eastwest;" vertex="1" parent="AvE2K1NfEVFAq9hO1QU2-12">
          <mxGeometry y="108" width="180" height="42" as="geometry" />
        </mxCell>
        <mxCell id="AvE2K1NfEVFAq9hO1QU2-18" value="OpenSalvaConNome" style="swimlane;fontStyle=2;align=center;verticalAlign=top;childLayout=stackLayout;horizontal=1;startSize=26;horizontalStack=0;resizeParent=1;resizeLast=0;collapsible=1;marginBottom=0;rounded=0;shadow=0;strokeWidth=1;" vertex="1" parent="WIyWlLk6GJQsqaUBKTNV-1">
          <mxGeometry x="290" y="300" width="240" height="190" as="geometry">
            <mxRectangle x="230" y="140" width="160" height="26" as="alternateBounds" />
          </mxGeometry>
        </mxCell>
        <mxCell id="AvE2K1NfEVFAq9hO1QU2-19" value="+ buttonSalva : InteractionButton&#xa;+ buttonSalvaConNome : InteractionButton&#xa;+ telaDisegnabile : GameObject&#xa;- prevPress : bool&#xa;- prevPressConNome : bool&#xa;+ saveFromUI : Button&#xa;- file : FileManager" style="text;align=left;verticalAlign=top;spacingLeft=4;spacingRight=4;overflow=hidden;rotatable=0;points=[[0,0.5],[1,0.5]];portConstraint=eastwest;" vertex="1" parent="AvE2K1NfEVFAq9hO1QU2-18">
          <mxGeometry y="26" width="240" height="104" as="geometry" />
        </mxCell>
        <mxCell id="AvE2K1NfEVFAq9hO1QU2-20" value="" style="line;html=1;strokeWidth=1;align=left;verticalAlign=middle;spacingTop=-1;spacingLeft=3;spacingRight=3;rotatable=0;labelPosition=right;points=[];portConstraint=eastwest;" vertex="1" parent="AvE2K1NfEVFAq9hO1QU2-18">
          <mxGeometry y="130" width="240" height="8" as="geometry" />
        </mxCell>
        <mxCell id="AvE2K1NfEVFAq9hO1QU2-21" value="- Start() : void&#xa;- Update() : void&#xa;+ Salva () : void" style="text;align=left;verticalAlign=top;spacingLeft=4;spacingRight=4;overflow=hidden;rotatable=0;points=[[0,0.5],[1,0.5]];portConstraint=eastwest;" vertex="1" parent="AvE2K1NfEVFAq9hO1QU2-18">
          <mxGeometry y="138" width="240" height="52" as="geometry" />
        </mxCell>
        <mxCell id="AvE2K1NfEVFAq9hO1QU2-22" value="OpenImpostazioni" style="swimlane;fontStyle=2;align=center;verticalAlign=top;childLayout=stackLayout;horizontal=1;startSize=26;horizontalStack=0;resizeParent=1;resizeLast=0;collapsible=1;marginBottom=0;rounded=0;shadow=0;strokeWidth=1;" vertex="1" parent="WIyWlLk6GJQsqaUBKTNV-1">
          <mxGeometry x="290" y="510" width="210" height="180" as="geometry">
            <mxRectangle x="230" y="140" width="160" height="26" as="alternateBounds" />
          </mxGeometry>
        </mxCell>
        <mxCell id="AvE2K1NfEVFAq9hO1QU2-23" value="- button : InteractionButton&#xa;- prevPress : bool&#xa;+ configurazione_tela : GameObject&#xa;+ hands : GameObject&#xa;+ telaÂ : GameObject&#xa;+ actionControllerÂ : GameObject&#xa;+ colorPickerÂ : GameObject&#xa;" style="text;align=left;verticalAlign=top;spacingLeft=4;spacingRight=4;overflow=hidden;rotatable=0;points=[[0,0.5],[1,0.5]];portConstraint=eastwest;" vertex="1" parent="AvE2K1NfEVFAq9hO1QU2-22">
          <mxGeometry y="26" width="210" height="104" as="geometry" />
        </mxCell>
        <mxCell id="AvE2K1NfEVFAq9hO1QU2-24" value="" style="line;html=1;strokeWidth=1;align=left;verticalAlign=middle;spacingTop=-1;spacingLeft=3;spacingRight=3;rotatable=0;labelPosition=right;points=[];portConstraint=eastwest;" vertex="1" parent="AvE2K1NfEVFAq9hO1QU2-22">
          <mxGeometry y="130" width="210" height="8" as="geometry" />
        </mxCell>
        <mxCell id="AvE2K1NfEVFAq9hO1QU2-25" value="- Start() : void&#xa;- Update() : void" style="text;align=left;verticalAlign=top;spacingLeft=4;spacingRight=4;overflow=hidden;rotatable=0;points=[[0,0.5],[1,0.5]];portConstraint=eastwest;" vertex="1" parent="AvE2K1NfEVFAq9hO1QU2-22">
          <mxGeometry y="138" width="210" height="42" as="geometry" />
        </mxCell>
        <mxCell id="AvE2K1NfEVFAq9hO1QU2-26" value="OpenExplorer" style="swimlane;fontStyle=2;align=center;verticalAlign=top;childLayout=stackLayout;horizontal=1;startSize=26;horizontalStack=0;resizeParent=1;resizeLast=0;collapsible=1;marginBottom=0;rounded=0;shadow=0;strokeWidth=1;" vertex="1" parent="WIyWlLk6GJQsqaUBKTNV-1">
          <mxGeometry x="290" y="710" width="180" height="130" as="geometry">
            <mxRectangle x="230" y="140" width="160" height="26" as="alternateBounds" />
          </mxGeometry>
        </mxCell>
        <mxCell id="AvE2K1NfEVFAq9hO1QU2-27" value="- button : InteractionButton&#xa;- prevPress : bool&#xa;- file : FileManager&#xa;" style="text;align=left;verticalAlign=top;spacingLeft=4;spacingRight=4;overflow=hidden;rotatable=0;points=[[0,0.5],[1,0.5]];portConstraint=eastwest;" vertex="1" parent="AvE2K1NfEVFAq9hO1QU2-26">
          <mxGeometry y="26" width="180" height="54" as="geometry" />
        </mxCell>
        <mxCell id="AvE2K1NfEVFAq9hO1QU2-28" value="" style="line;html=1;strokeWidth=1;align=left;verticalAlign=middle;spacingTop=-1;spacingLeft=3;spacingRight=3;rotatable=0;labelPosition=right;points=[];portConstraint=eastwest;" vertex="1" parent="AvE2K1NfEVFAq9hO1QU2-26">
          <mxGeometry y="80" width="180" height="8" as="geometry" />
        </mxCell>
        <mxCell id="AvE2K1NfEVFAq9hO1QU2-29" value="- Start() : void&#xa;- Update() : void" style="text;align=left;verticalAlign=top;spacingLeft=4;spacingRight=4;overflow=hidden;rotatable=0;points=[[0,0.5],[1,0.5]];portConstraint=eastwest;" vertex="1" parent="AvE2K1NfEVFAq9hO1QU2-26">
          <mxGeometry y="88" width="180" height="42" as="geometry" />
        </mxCell>
        <mxCell id="AvE2K1NfEVFAq9hO1QU2-30" value="OpenColori" style="swimlane;fontStyle=2;align=center;verticalAlign=top;childLayout=stackLayout;horizontal=1;startSize=26;horizontalStack=0;resizeParent=1;resizeLast=0;collapsible=1;marginBottom=0;rounded=0;shadow=0;strokeWidth=1;" vertex="1" parent="WIyWlLk6GJQsqaUBKTNV-1">
          <mxGeometry x="290" y="860" width="180" height="160" as="geometry">
            <mxRectangle x="230" y="140" width="160" height="26" as="alternateBounds" />
          </mxGeometry>
        </mxCell>
        <mxCell id="AvE2K1NfEVFAq9hO1QU2-31" value="- button : InteractionButton&#xa;- prevPress : bool&#xa;- active : bool&#xa;+ colorPicker : GameObject&#xa;+ rightHand : GameObject&#xa;" style="text;align=left;verticalAlign=top;spacingLeft=4;spacingRight=4;overflow=hidden;rotatable=0;points=[[0,0.5],[1,0.5]];portConstraint=eastwest;" vertex="1" parent="AvE2K1NfEVFAq9hO1QU2-30">
          <mxGeometry y="26" width="180" height="84" as="geometry" />
        </mxCell>
        <mxCell id="AvE2K1NfEVFAq9hO1QU2-32" value="" style="line;html=1;strokeWidth=1;align=left;verticalAlign=middle;spacingTop=-1;spacingLeft=3;spacingRight=3;rotatable=0;labelPosition=right;points=[];portConstraint=eastwest;" vertex="1" parent="AvE2K1NfEVFAq9hO1QU2-30">
          <mxGeometry y="110" width="180" height="8" as="geometry" />
        </mxCell>
        <mxCell id="AvE2K1NfEVFAq9hO1QU2-33" value="- Start() : void&#xa;- Update() : void" style="text;align=left;verticalAlign=top;spacingLeft=4;spacingRight=4;overflow=hidden;rotatable=0;points=[[0,0.5],[1,0.5]];portConstraint=eastwest;" vertex="1" parent="AvE2K1NfEVFAq9hO1QU2-30">
          <mxGeometry y="118" width="180" height="42" as="geometry" />
        </mxCell>
        <mxCell id="AvE2K1NfEVFAq9hO1QU2-34" value="MoveCanvas" style="swimlane;fontStyle=2;align=center;verticalAlign=top;childLayout=stackLayout;horizontal=1;startSize=26;horizontalStack=0;resizeParent=1;resizeLast=0;collapsible=1;marginBottom=0;rounded=0;shadow=0;strokeWidth=1;" vertex="1" parent="WIyWlLk6GJQsqaUBKTNV-1">
          <mxGeometry x="570" y="40" width="180" height="220" as="geometry">
            <mxRectangle x="230" y="140" width="160" height="26" as="alternateBounds" />
          </mxGeometry>
        </mxCell>
        <mxCell id="AvE2K1NfEVFAq9hO1QU2-35" value="+ tela : GameObject&#xa;- oldPosition : Vector3&#xa;- canMove : bool&#xa;" style="text;align=left;verticalAlign=top;spacingLeft=4;spacingRight=4;overflow=hidden;rotatable=0;points=[[0,0.5],[1,0.5]];portConstraint=eastwest;" vertex="1" parent="AvE2K1NfEVFAq9hO1QU2-34">
          <mxGeometry y="26" width="180" height="54" as="geometry" />
        </mxCell>
        <mxCell id="AvE2K1NfEVFAq9hO1QU2-36" value="" style="line;html=1;strokeWidth=1;align=left;verticalAlign=middle;spacingTop=-1;spacingLeft=3;spacingRight=3;rotatable=0;labelPosition=right;points=[];portConstraint=eastwest;" vertex="1" parent="AvE2K1NfEVFAq9hO1QU2-34">
          <mxGeometry y="80" width="180" height="8" as="geometry" />
        </mxCell>
        <mxCell id="AvE2K1NfEVFAq9hO1QU2-37" value="- Start() : void&#xa;- Update() : void&#xa;+ SetCanMove() : void&#xa;+ SetCantMove() : void&#xa;+ MoveUp() : void&#xa;+ MoveDown() : void&#xa;+ MoveRight() : void&#xa;+ MoveLeft() : void&#xa;+ ResetPosition() : void" style="text;align=left;verticalAlign=top;spacingLeft=4;spacingRight=4;overflow=hidden;rotatable=0;points=[[0,0.5],[1,0.5]];portConstraint=eastwest;" vertex="1" parent="AvE2K1NfEVFAq9hO1QU2-34">
          <mxGeometry y="88" width="180" height="132" as="geometry" />
        </mxCell>
      </root>
    </mxGraphModel>
  </diagram>
</mxfile>
